<svg height="1000" style="font-style:normal;font-weight:normal;font-size:12px;font-family:Dialog;color-interpolation:auto;fill:#000000;fill-opacity:1;stroke:#000000;stroke-width:1;stroke-linecap:square;stroke-linejoin:miter;stroke-miterlimit:10;stroke-dasharray:none;stroke-dashoffset:0;stroke-opacity:1;color-rendering:auto;image-rendering:auto;shape-rendering:auto;text-rendering:auto" viewBox="0 0 1000 1000" width="1000" xml:space="preserve" xmlns="http://www.w3.org/2000/svg">
	<path d="M 0, 0 q 0 0 0 0 0 0 0 0 0 0 0 0 0 0 0 0 0 0 0 0 0 0 0 0 0 0 0 0 0 0 35 63 64 64 0 0 0 0 0 0 0 0 0 0 0 0 0 0 0 0 0 0 0 0 0 0 0 0 0 0 0 0 0 0 0 0 0 0 0 0 0 0 0 0 0 0 0 0 0 0 0 0 0 0 0 0 0 0 0 0 0 0 0 0 0 0 0 0 0 0 0 0 0 0 0 0 0 0 0 0 0 0 0 0 0 0 0 0 0 0 0 0 0 0 0 0 0 0 0 0 0 0 0 0 0 0 0 0 0 0 0 0 0 0 0 0 0 0 0 0 0 0 0 0 0 0 0 0 0 0 0 0 0 0 0 0 0 0 0 0 0 0 0 0 0 0 0 0 0 0 0 0 0 0 0 0 0 0 0 0 0 0 0 0 0 0 0 0 0 0 0 0 0 0 0 0 0 0 0 0 0 0 0 0 0 0 0 0 0 0 0 0 0 0 0 0 0" style="fill:none;stroke-width:0.9;stroke-linecap:round;stroke-miterlimit:10;stroke-dasharray:none"/>
	<path d="M 0, 10 q 0 0 0 0 0 0 0 0 0 0 0 0 0 0 0 0 0 0 0 41 51 57 57 58 58 58 58 59 57 55 55 56 57 58 58 0 0 0 0 0 0 0 0 0 0 0 0 0 0 0 0 0 0 0 0 0 0 0 0 0 0 0 0 0 0 0 0 0 0 0 0 0 0 0 0 0 0 0 0 0 0 0 0 0 0 0 0 0 0 0 0 0 0 0 0 0 0 0 0 0 0 0 0 0 0 0 0 0 0 0 0 0 0 0 0 0 0 0 0 0 0 0 0 0 0 0 0 0 0 0 0 0 0 0 0 0 0 0 0 0 0 0 0 0 0 0 0 0 0 0 0 0 0 0 0 0 0 0 0 0 0 0 0 0 0 0 0 0 0 0 0 0 0 0 0 0 0 0 0 0 0 0 0 0 0 0 0 0 0 0 0 0 0 0 0 0 0 0 0 0 0 0 0 0 0 0 0 0 0 0 0 0 0 0 0 0 0 0 0 0 0 0 0 0 0 0 0" style="fill:none;stroke-width:0.9;stroke-linecap:round;stroke-miterlimit:10;stroke-dasharray:none"/>
	<path d="M 0, 20 q 0 0 0 0 0 0 0 0 0 0 0 0 0 46 46 49 53 53 53 53 53 52 52 53 54 54 54 54 55 56 56 57 58 60 61 58 58 0 0 0 0 0 0 0 0 0 0 0 0 0 0 0 0 0 0 0 0 0 0 0 0 0 0 0 0 0 0 0 0 0 0 0 0 0 0 0 0 0 0 0 0 0 0 0 0 0 0 0 0 0 0 0 0 0 0 0 0 0 0 0 0 0 0 0 0 0 0 0 0 0 0 0 0 0 0 0 0 0 0 0 0 0 0 0 0 0 0 0 0 0 0 0 0 0 0 0 0 0 0 0 0 0 0 0 0 0 0 0 0 0 0 0 0 0 0 0 0 0 0 0 0 0 0 0 0 0 0 0 0 0 0 0 0 0 0 0 0 0 0 0 0 0 0 0 0 0 0 0 0 0 0 0 0 0 0 0 0 0 0 0 0 0 0 0 0 0 0 0 0 0 0 0 0 0 0 0 0 0 0 0 0 0 0 0 0 0 0" style="fill:none;stroke-width:0.9;stroke-linecap:round;stroke-miterlimit:10;stroke-dasharray:none"/>
	<path d="M 0, 30 q 0 0 0 0 0 0 0 0 47 49 49 49 49 59 50 50 50 51 50 50 50 51 51 52 53 53 54 55 54 53 53 54 55 56 56 55 55 54 53 53 54 54 55 0 0 0 0 0 0 0 0 0 0 0 0 0 0 0 0 0 0 0 0 0 0 0 0 0 0 0 0 0 0 0 0 0 0 0 0 0 0 0 0 0 0 0 0 0 0 0 0 0 0 0 0 0 0 0 0 0 0 0 0 0 0 0 0 0 0 0 0 0 0 0 0 0 0 0 0 0 0 0 0 0 0 51 51 51 51 51 51 0 0 0 0 0 0 0 0 0 0 0 0 0 0 51 51 51 51 51 51 51 0 0 0 0 0 0 0 0 0 0 0 0 0 0 0 0 0 0 0 0 0 0 0 0 0 0 0 0 0 0 0 0 0 0 0 0 0 0 0 0 0 51 51 51 51 51 51 51 0 0 0 0 0 0 0 0 0 0 0 0 0 0 0 0 0 0 0 0 0 0 0 0 0 0 0" style="fill:none;stroke-width:0.9;stroke-linecap:round;stroke-miterlimit:10;stroke-dasharray:none"/>
	<path d="M 0, 40 q 0 0 0 0 52 50 50 50 49 51 54 57 56 55 55 55 50 48 49 48 51 51 52 53 54 53 53 50 48 50 50 51 52 52 53 53 53 53 54 54 54 54 55 55 56 55 53 47 45 45 45 0 0 0 0 0 0 0 0 0 0 0 0 0 0 0 0 0 0 0 0 0 0 0 0 0 0 0 0 0 0 0 0 0 0 0 0 0 0 0 0 0 0 0 0 0 0 0 0 0 0 0 0 0 0 0 0 0 0 0 0 0 0 0 0 0 0 0 0 0 0 0 0 0 0 51 51 51 51 51 51 0 0 0 0 0 0 0 0 0 0 0 0 0 0 0 0 0 0 0 0 0 0 0 0 0 0 0 0 0 0 0 0 0 0 0 0 0 0 0 0 0 0 0 0 0 0 0 0 0 0 0 0 0 0 0 0 0 0 0 0 0 0 0 0 0 0 0 0 0 0 0 0 0 0 0 0 0 0 0 0 0 0 0 0 0 0 0 0 0 0 0 0 0 0 0 0" style="fill:none;stroke-width:0.9;stroke-linecap:round;stroke-miterlimit:10;stroke-dasharray:none"/>
	<path d="M 0, 50 q 0 54 54 53 53 53 52 52 52 52 54 54 53 53 53 53 53 52 52 52 52 53 55 55 54 46 47 47 47 47 47 48 49 49 49 50 50 50 50 51 51 51 51 52 52 53 53 54 54 54 54 53 53 53 53 53 54 51 0 0 0 0 0 0 0 0 0 0 0 0 0 0 0 0 0 0 0 0 0 0 0 0 0 0 0 0 0 0 0 0 51 51 51 51 51 51 51 51 0 0 0 0 0 0 0 0 0 0 51 51 51 51 51 51 51 51 0 0 0 0 0 0 0 0 0 51 51 51 51 51 51 0 0 0 0 0 0 0 0 0 0 0 0 0 0 51 51 51 51 51 51 0 0 0 0 0 0 0 0 0 0 51 51 51 51 51 51 51 51 51 0 0 0 0 0 51 51 51 51 51 51 51 51 0 0 0 0 0 0 0 0 0 0 0 51 51 51 51 51 51 0 0 0 0 0 0 0 0 0 0 0 51 51 51 51 51 51 51 51 51 0 0 0 0 0 0 0" style="fill:none;stroke-width:0.9;stroke-linecap:round;stroke-miterlimit:10;stroke-dasharray:none"/>
	<path d="M 0, 60 q 58 57 57 57 56 56 56 56 56 53 52 51 51 51 50 51 51 51 51 50 50 50 50 50 50 49 49 48 47 47 45 45 46 46 46 46 47 47 47 47 47 48 48 48 48 49 50 51 51 52 52 52 52 52 53 53 53 53 53 53 53 54 0 0 0 0 0 0 0 0 0 0 0 0 0 0 0 0 0 0 0 0 0 0 0 0 0 0 51 51 51 51 51 51 51 51 51 51 51 51 51 51 51 51 51 51 51 51 51 51 51 51 51 51 51 51 51 51 0 0 0 0 0 0 0 51 51 51 51 51 51 0 0 0 0 0 0 0 0 0 0 0 0 0 0 51 51 51 51 51 51 0 0 0 0 0 0 0 0 0 0 0 0 0 0 0 0 0 51 51 51 51 51 51 51 51 51 0 0 0 0 0 0 0 0 0 0 0 0 0 0 0 0 0 51 51 51 51 51 51 0 0 0 0 0 0 0 0 0 0 0 51 51 51 51 51 51 0 0 0 0 0 0 0 0 0 0" style="fill:none;stroke-width:0.9;stroke-linecap:round;stroke-miterlimit:10;stroke-dasharray:none"/>
	<path d="M 0, 70 q 0 62 61 60 60 59 59 59 58 57 55 55 54 54 54 54 54 53 53 53 52 51 50 49 49 49 49 49 49 49 49 49 49 49 49 49 51 51 52 52 51 51 52 52 51 52 52 53 54 54 54 54 54 54 54 54 54 51 50 50 50 0 0 0 0 0 0 0 0 0 0 0 0 0 0 0 0 0 0 0 0 0 0 0 0 0 0 0 0 0 51 51 51 51 51 51 51 51 0 0 0 0 0 0 0 0 0 0 0 0 0 0 0 51 51 0 0 0 0 0 0 0 0 0 0 51 51 51 51 51 51 51 0 0 0 0 0 0 0 0 0 0 0 0 0 51 51 51 51 51 51 0 0 0 0 0 0 0 0 0 0 51 51 51 51 51 51 51 51 0 0 0 0 0 0 51 51 51 51 51 51 51 51 51 0 0 0 0 0 0 0 0 0 0 51 51 51 51 51 51 0 0 0 0 0 0 0 0 0 0 0 51 51 51 51 51 51 0 0 0 0 0 0 0 0 0 0" style="fill:none;stroke-width:0.9;stroke-linecap:round;stroke-miterlimit:10;stroke-dasharray:none"/>
	<path d="M 0, 80 q 0 0 0 0 63 62 62 62 61 61 61 60 60 60 58 58 57 57 56 55 53 51 50 50 49 48 46 45 45 44 44 44 44 43 43 43 43 42 42 42 42 42 43 44 43 43 42 43 43 43 43 44 44 44 45 45 45 45 0 0 0 0 0 0 0 0 0 0 0 0 0 0 0 0 0 0 0 0 0 0 0 0 0 0 0 0 0 0 0 0 0 0 0 0 0 0 0 0 0 0 0 0 0 0 0 0 0 0 0 0 0 0 0 0 0 0 0 0 0 0 0 0 0 0 0 0 0 0 0 0 0 0 0 0 0 0 0 0 0 0 0 0 0 0 0 0 0 0 0 0 0 0 0 0 0 0 0 0 0 0 0 0 0 0 0 0 0 0 0 0 0 0 0 0 0 0 0 0 0 0 0 0 0 0 0 0 0 0 0 0 0 0 0 0 0 0 0 0 0 0 0 0 0 0 0 0 0 0 0 0 0 0 0 0 0 0 0 0 0 0 0 0 0 0 0 0 0" style="fill:none;stroke-width:0.9;stroke-linecap:round;stroke-miterlimit:10;stroke-dasharray:none"/>
	<path d="M 0, 90 q 0 0 0 0 0 0 0 0 0 0 0 0 0 0 61 61 61 60 60 60 59 59 60 60 59 58 57 55 54 53 51 49 48 50 50 50 50 49 43 38 39 39 39 39 40 40 40 40 0 0 0 0 0 0 0 0 0 0 0 0 0 0 0 0 0 0 0 0 0 0 0 0 0 0 0 0 0 0 0 0 0 0 0 0 0 0 0 0 0 0 0 0 0 0 0 0 0 0 0 0 0 0 0 0 0 0 0 0 0 0 0 0 0 0 0 0 0 0 0 0 0 0 0 0 0 0 0 0 0 0 0 0 0 0 0 0 0 0 0 0 0 0 0 0 0 0 0 0 0 0 0 0 0 0 0 0 0 0 0 0 0 0 0 0 0 0 0 0 0 0 0 0 0 0 0 0 0 0 0 0 0 0 0 0 0 0 0 0 0 0 0 0 0 0 0 0 0 0 0 0 0 0 0 0 0 0 0 0 0 0 0 0 0 0 0 0 0 0 0 0 0 0 0 0 0 0 0" style="fill:none;stroke-width:0.9;stroke-linecap:round;stroke-miterlimit:10;stroke-dasharray:none"/>
</svg>